<?xml version="1.0" encoding="utf-8"?>
<!-- Generator: Adobe Illustrator 19.0.0, SVG Export Plug-In . SVG Version: 6.00 Build 0)  -->
<svg version="1.1" id="Layer_1" xmlns="http://www.w3.org/2000/svg" xmlns:xlink="http://www.w3.org/1999/xlink" x="0px" y="0px"
	 width="612px" height="395.3px" viewBox="0 0 612 395.3" style="enable-background:new 0 0 612 395.3;" xml:space="preserve">
<style type="text/css">
	.st0{fill:#FFFFFF;}
</style>
<g id="XMLID_41_">
	<circle id="XMLID_39_" class="st0" cx="350.2" cy="115.2" r="15.8"/>
	<path id="XMLID_44_" class="st0" d="M586.9,205.1l-0.6,0.3c0-0.1-0.3-0.2-0.3-0.3v-65.7H480.5c-21.8-59-73.1-104.7-139-116.6
		C253.1,6.9,167.7,58.4,137.7,139.4H94.5C59.7,139.4,32,168,32,202.8v62.6h105.7c21.8,60,73.1,104.7,139,116.6
		c88.5,15.9,173.8-34.6,203.9-116.6h45.5c17.3,0,32.9-7,43.9-18.7C580.5,235.9,586.9,221.4,586.9,205.1z M429.5,176.3
		c-0.2,0.1-0.5,0.2-0.5,0.4c0,0,0,0,0,0c-2,1.3-4.7,3.2-6.5,5.5c-1.9,2.5-3.5,5.6-4.6,9.2c-1.1,3.6-1.6,7.6-1.6,12
		c0,4.1,0.5,7.9,1.6,11.3c1.1,3.4,2.6,6.4,4.5,8.8c1.8,2.3,4.1,4,6.6,5.3c1.8-8.4,3-17,3-25.9c0,0,0,0,0,0c0,8.9-1.2,17.6-3,25.9
		c0.2,0.1,0.3,0.2,0.5,0.3c2.7,1.3,5.6,2,8.9,2c2.7,0,5.1-0.5,7.5-1.4c2.4-0.9,4.4-2.3,6.2-3.9c1.8-1.7,3.1-3.9,4.1-6
		c1-2.2,1.5-4.3,1.5-7.3H440v-13h33v44h-16v-6.8c-2,3-5,5.1-8.5,6.4c-3.6,1.3-7.9,1.9-13.3,1.9c-3.8,0-7.3-0.6-10.6-1.6c0,0,0,0,0,0
		c-1.4-0.4-2.7-0.9-4-1.6c-4.4-2.1-8.2-5.1-11.3-8.9c-3.1-3.8-5.5-8.3-7.3-13.4c-1.7-5.1-2.6-10.7-2.6-16.7c0-5.8,0.8-11.3,2.5-16.4
		c1.7-5.1,4.1-9.6,7.4-13.4c3.3-3.8,7.3-6.8,12.1-9c1-0.5,2.1-0.9,3.3-1.3c4.1-1.3,8.6-2,13.6-2c4.7,0,9.1,0.7,13.2,2
		c4.1,1.3,7.6,3.2,10.7,5.6c3.1,2.4,5.6,5.6,7.4,8.9c1.8,3.3,2.9,7.3,3.1,11.3h-16.6c-0.3-2-0.9-3.9-2-5.5c-1.1-1.6-2.4-3.3-4-4.5
		c-1.6-1.2-3.4-2.3-5.5-3c-2.1-0.7-4.1-1.1-6.4-1.1C435.1,174.3,432.2,174.9,429.5,176.3z M309.1,80.3c44.4,0,83.3,23.1,104.7,59.1
		H204.4C225.9,103.4,264.7,80.3,309.1,80.3z M386,162.4v81h-16.6L338,189.2v54.3h-17v-81h17.9l32.1,52.5v-52.5H386z M305,162.4v81
		h-16v-81H305z M268.2,209.5c1.5,2.3,1.8,5.7,1.8,10.4v23.5h-15v-21.5c0-3.9-1.1-6-3.1-7.7c-1.9-1.6-5.3-1.9-9.7-1.9H224v31h-16v-81
		h40.6c3.7,0,7,1,10.1,2.1c3,1.2,5.7,3,7.8,5c2.2,2.1,3.9,4.6,5.1,7.4c1.2,2.8,1.8,5.9,1.8,9.1c0,4.4-1.1,8.2-3.2,11.4
		c-2.1,3.2-5.2,5.6-9.1,7C264.7,205.6,266.8,207.3,268.2,209.5z M122.5,229.4c-1.6,3.2-3.7,5.9-6.4,8.1c-2.7,2.2-5.8,3.9-9.4,5.1
		c-3.6,1.2-7.5,1.5-11.6,1.5c-22.9,0-34.6-8.8-35.1-26.8h15.9c0.1,4,1.7,7.6,4.9,9.9c3.2,2.3,7.2,3.6,12.1,3.6c2.1,0,4-0.2,6-0.6
		c1.9-0.5,3.6-1.1,5.1-2c1.5-0.9,2.7-2,3.5-3.2c0.9-1.2,1.3-2.6,1.3-4c0-4.7-4.1-8.1-12.2-10c-6.9-1.6-12-3-15.6-4.2
		c-3.5-1.2-6-2.1-7.6-2.8c-4.1-1.9-7.1-4.3-9-7.3c-1.9-3-2.8-6.8-2.8-11.4c0-3.4,0.6-6.6,1.9-9.6c1.3-3,3.1-5.6,5.6-7.8
		c2.4-2.2,5.5-3.9,9.1-5.2c3.6-1.3,7.8-1.9,12.5-1.9c4.4,0,8.4,0.6,12.2,1.9c3.8,1.2,7.1,3,9.9,5.2c2.8,2.2,5.1,5.3,6.7,8.5
		c1.7,3.2,2.6,7.1,2.8,11.1h-15.9c-0.3-4-1.9-7.2-4.8-9.3c-2.9-2.1-6.5-3.3-10.9-3.3c-3.9,0-7.2,0.8-9.9,2.5c-2.7,1.7-4.1,4-4.1,6.9
		c0,2.2,0.9,4.1,2.8,5.7c1.9,1.6,5,2.9,9.4,3.9c3.5,0.9,6.6,1.6,9.2,2.3c2.6,0.7,4.9,1.3,6.9,1.9c2,0.6,3.8,1.2,5.4,1.7
		c1.6,0.6,3.1,1.2,4.6,1.9c3,1.5,5.4,3.6,7.1,6.3c1.8,2.7,2.6,6.3,2.6,10.7C124.9,222.6,124.1,226.2,122.5,229.4z M130,176.4v-10.1
		c1-1.2,0.6-2.9,0.9-3.9h62.5h2.7v14h-6.5H171v67h-17v-67H130z M309.1,324.5c-44.4,0-83.3-22.1-104.7-59.1h209.5
		C392.4,302.4,353.6,324.5,309.1,324.5z M524.2,212.4H507v31h-17V225v-44.7v-17.9h40.7c3.7,0,7,1,10.1,2.1c3,1.2,5.7,3,7.8,5
		c2.2,2.1,3.9,4.6,5.1,7.4c1.2,2.8,1.8,5.9,1.8,9.1c0,4.4-1.1,8.2-3.2,11.4c-2.1,3.2-5.1,5.6-9,7c3.5,1.1,6.1,2.8,7.5,5.1
		c1.5,2.3,2.2,5.7,2.2,10.4V239l-3.9,4.4H537v-21.5c0-3.9-1.1-6-3-7.7C532,212.7,528.7,212.4,524.2,212.4z"/>
	<path id="XMLID_2_" class="st0" d="M539.3,187.3c0-3.1-1.1-5.8-3.3-7.8c-2.2-2-4.9-3.2-8.3-3.2H507v21h20.2c3.6,0,6.5-0.7,8.7-2.7
		C538.2,192.7,539.3,190.3,539.3,187.3z"/>
	<path id="XMLID_1_" class="st0" d="M245.7,176.4H224v21h21.1c3.6,0,6.5-0.7,8.7-2.7c2.2-2,3.3-4.4,3.3-7.4c0-3.1-1.1-5.8-3.3-7.8
		C251.8,177.6,249,176.4,245.7,176.4z"/>
</g>
</svg>
